<svg xmlns="http://www.w3.org/2000/svg" aria-hidden="true" style="position:absolute;width:0;height:0;overflow:hidden">
  <defs>
    <symbol id="icon-apple-logo" viewBox="0 0 27 32">
      <path d="M14.713 2.785C16.862.014 19.85 0 19.85 0s.444 2.605-1.691 5.115c-2.28 2.68-4.871 2.241-4.871 2.241s-.487-2.108 1.425-4.572zm-1.151 6.397c1.106 0 3.158-1.487 5.829-1.487 4.598 0 6.406 3.201 6.406 3.201s-3.538 1.769-3.538 6.063c0 4.843 4.407 6.513 4.407 6.513s-3.081 8.482-7.241 8.482c-1.911 0-3.397-1.26-5.411-1.26-2.052 0-4.088 1.307-5.415 1.307-3.8 0-8.6-8.046-8.6-14.514 0-6.364 4.063-9.702 7.874-9.702 2.478 0 4.4 1.398 5.688 1.398z"/>
    </symbol>
  </defs>
</svg>
